inDegrees=no
num_controls=7
num_derivatives=13
num_iterations=173
num_multipliers=7
num_parameters=0
num_slacks=7
num_states=26
objective=5.413321
objective_accelerations=0.538073
objective_balance=0.009251
objective_effort=0.426120
objective_height=4.416338
objective_ligament=0.023539
solver_duration=1441.100335
status=Solve_Succeeded
success=true
DataType=double
version=3
OpenSimVersion=4.4-2022-07-23-0e9fedc
endheader
time	/jointset/ground_pelvis/pelvis_tilt/value	/jointset/ground_pelvis/pelvis_tx/value	/jointset/ground_pelvis/pelvis_ty/value	/jointset/hip_r/hip_flexion_r/value	/jointset/hip_r/hip_adduction_r/value	/jointset/hip_r/hip_rotation_r/value	/jointset/back/lumbar_extension/value	/jointset/patellofemoral_r/patellar_flexion_r/value	/jointset/knee_r/knee_flexion_r/value	/jointset/knee_r/knee_adduction_r/value	/jointset/knee_r/knee_rotation_r/value	/jointset/ankle_r/ankle_angle_r/value	/jointset/subtalar_r/subtalar_angle_r/value	/jointset/ground_pelvis/pelvis_tilt/speed	/jointset/ground_pelvis/pelvis_tx/speed	/jointset/ground_pelvis/pelvis_ty/speed	/jointset/hip_r/hip_flexion_r/speed	/jointset/hip_r/hip_adduction_r/speed	/jointset/hip_r/hip_rotation_r/speed	/jointset/back/lumbar_extension/speed	/jointset/patellofemoral_r/patellar_flexion_r/speed	/jointset/knee_r/knee_flexion_r/speed	/jointset/knee_r/knee_adduction_r/speed	/jointset/knee_r/knee_rotation_r/speed	/jointset/ankle_r/ankle_angle_r/speed	/jointset/subtalar_r/subtalar_angle_r/speed	/forceset/tau_hip_flexion_r	/forceset/tau_hip_adduction_r	/forceset/tau_hip_rotation_r	/forceset/tau_knee_flexion_r	/forceset/tau_ankle_angle_r	/forceset/tau_subtalar_angle_r	/forceset/tau_lumbar_extension	lambda_cid13_p0	lambda_cid14_p0	lambda_cid14_p1	lambda_cid14_p2	lambda_cid14_p3	lambda_cid14_p4	lambda_cid14_p5	/jointset/ground_pelvis/pelvis_tilt/accel	/jointset/ground_pelvis/pelvis_tx/accel	/jointset/ground_pelvis/pelvis_ty/accel	/jointset/hip_r/hip_flexion_r/accel	/jointset/hip_r/hip_adduction_r/accel	/jointset/hip_r/hip_rotation_r/accel	/jointset/back/lumbar_extension/accel	/jointset/patellofemoral_r/patellar_flexion_r/accel	/jointset/knee_r/knee_flexion_r/accel	/jointset/knee_r/knee_adduction_r/accel	/jointset/knee_r/knee_rotation_r/accel	/jointset/ankle_r/ankle_angle_r/accel	/jointset/subtalar_r/subtalar_angle_r/accel	gamma_cid13_p0	gamma_cid14_p0	gamma_cid14_p1	gamma_cid14_p2	gamma_cid14_p3	gamma_cid14_p4	gamma_cid14_p5
1	-0.1912614008682252	-0.004602583490369567	0.6622508953450982	1.320452420528124	-0.2360352085355763	-0.1041554243110558	-0.7853949839317904	1.446437799672755	1.446437799672729	-0.1745111492227156	0.1744767716960959	0.4362644889215394	0.1804937923410594	0.069367073138893	0.005654656624636011	0.01539416526118444	-0.1015101566590928	-0.001116470212470209	-0.0001332193514842454	0.0005334654878666411	-0.01907471735443293	-0.01907471735443289	0.006830561061605895	-0.0003431119792004673	0.01261742513572358	0.004493183276028248	-0.3047913870261355	0.01602680878880702	0.01374608882431189	-0.4564687161355518	-0.02311216513856779	0.0145067722753979	0.3408097613912129	-0.04192953492860832	-57.59974881132936	-5.692606763613496	3.508427873179928	7.733545547351119	-760.8197314231401	81.30682649729718	1.126252592626364	0.1362216148083454	1.673625968102382	-4.964135424888609	0.2614824082431764	-0.3554488830609963	0.03447762286961924	-4.834722637375143	-4.83472263737512	0.8805987879173177	-0.009746769324210335	-1.171925997450257	-0.1103135820786442	1.086162537097373e-09	-2.711596920164233e-10	1.398861922966823e-08	7.965480720344049e-09	2.673058084565369e-09	-5.63197102444719e-09	2.252913398428091e-08
1.01	-0.1905125320298037	-0.004539009792495767	0.6624883668527964	1.31919018652094	-0.2360335215850909	-0.1041718782278457	-0.785385020780328	1.44600584106373	1.446005841063726	-0.1743959514180322	0.1744726659243526	0.4363323086561488	0.1805328464634476	0.08035505132763897	0.007084196864954503	0.03209739617585762	-0.150913624631207	0.001442920795370903	-0.003136207236800004	0.00168023687900263	-0.06731329530699005	-0.06731329530699057	0.01624457419547129	-0.0004688811975400891	0.0009746897050920027	0.00331088231736907	-0.3057828603305993	0.01611609103382296	0.01380555287507841	-0.4564040114686967	-0.02345024397997161	0.01449403390137646	0.3421114322819759	-0.04192272879378213	-57.75218004988118	-5.723180603968289	3.51141994690223	7.498748938138021	-761.6552561054334	81.28710065617953	1.077325998070271	0.1499377312528093	1.6682582187446	-4.924997662481331	0.251532376583378	-0.2695174118883296	0.1879377074874518	-4.817870066453706	-4.817870066453782	0.9771391597586909	-0.01260608984247469	-1.156222806385094	-0.1231907617700559	5.276751447911423e-09	5.176789119999833e-09	4.011392458956427e-08	4.258774206063652e-08	2.08311984535903e-09	-1.203040966600937e-08	7.59897436661916e-08
1.02	-0.1896553322962813	-0.004460417191696936	0.6628927879827601	1.317434608798204	-0.2360065677386211	-0.1042177207576221	-0.7853569577528662	1.445091607736727	1.445091607736749	-0.1741855461652701	0.1744675796420645	0.4362845459383912	0.1805598770944471	0.09103325215924717	0.008658437209642132	0.0487840897142988	-0.2001788997676652	0.003936908984371657	-0.006010941946972831	0.004153440680210851	-0.1155296609498574	-0.1155296609498578	0.02587205067483895	-0.0005392140860267979	-0.01049906534615973	0.002088484998290978	-0.3067743336351065	0.01620537327881515	0.01386501692577922	-0.4563393068018517	-0.0237883228213762	0.01448129552731178	0.3434131031726991	-0.04192382716258866	-57.91286977826429	-5.75082912776446	3.508952095547631	7.268494911960019	-762.6238609661192	81.3049932093633	1.064297121198834	0.1651616356821557	1.670318492855979	-4.93649685775738	0.2484018444751114	-0.3297982480324183	0.2997641048839458	-4.830280175437188	-4.830280175437016	0.9232914570177524	0.00134049664636621	-1.138129921574314	-0.118332854162428	1.041122240019476e-08	1.428271359638526e-08	6.864227166727524e-08	8.42991301309294e-08	-4.460794504336173e-09	-1.774603322827131e-08	1.390593711298742e-07
1.03	-0.1886927131094174	-0.004365473455448755	0.6634639409087518	1.315187146931383	-0.2359549598462913	-0.1042917959746988	-0.7852981893414991	1.443695296356132	1.443695296356152	-0.1738779692146805	0.17446203992779	0.4361226043562125	0.1805744154576585	0.1014558053459149	0.01034304149732377	0.06543830820084258	-0.2492808621242271	0.006378265116187795	-0.00879318274137263	0.007757962243171699	-0.1637311888744244	-0.1637311888744255	0.03566343207449939	-0.0005639078998293732	-0.02188963578708773	0.0008064640823736591	-0.3072890652694206	0.01636679877245046	0.01394449857490501	-0.4557557301534008	-0.02447111798149164	0.01446621336947828	0.3441763326781289	-0.0419414338884002	-58.15398525048256	-5.787304567654959	3.500726725762923	7.314050492282487	-762.9846208472346	81.22504781412918	1.02602246752051	0.1720172907581877	1.661740708531719	-4.892149460798526	0.2410586141162069	-0.2507887595409165	0.4144542793304553	-4.814878298982658	-4.814878298982871	1.010074209408125	-0.003617800906310567	-1.139578140825218	-0.135014976881927	1.555532480188085e-08	2.342596435506019e-08	9.719513957884145e-08	1.260828562290795e-07	-1.106546371230171e-08	-2.345468928972405e-08	2.022270497954116e-07
